<?xml version="1.0" encoding="UTF-8"?>
<svg id="_图层_2" data-name="图层 2" xmlns="http://www.w3.org/2000/svg" viewBox="0 0 624.83 36.62">
  <defs>
    <style>
      .cls-1 {
        fill: #87620d;
      }

      .cls-2, .cls-3 {
        fill: #ffbc03;
      }

      .cls-3 {
        stroke: #87620d;
        stroke-linecap: square;
        stroke-linejoin: round;
        stroke-width: 2px;
      }

      .cls-4 {
        fill: #6c7228;
      }
    </style>
  </defs>
  <g id="_图层_1-2" data-name="图层 1">
    <g>
      <path class="cls-3" d="M43.28,2h-5.62c-.3,0-.58,.11-.86,.34-.25,.21-.43,.46-.55,.75l-.65,2.06h-3.7l-.1-2.3c0-.23-.08-.42-.24-.58-.18-.18-.38-.27-.58-.27h-5.72l.14,3.15h-1.58c-.18,0-.34,.07-.48,.21-.16,.11-.25,.26-.27,.45l-.24,2.06h6.99l-2.4,9.39h-5.48c-.25,0-.47,.09-.65,.27-.18,.18-.3,.41-.34,.69l-.48,3.05h5.65l-6.85,12.95h4.8c1.69,0,3.11-.88,4.25-2.64l2.91-5.17,2.47,6.17c.46,1.1,1.22,1.64,2.3,1.64h5.38l-3.84-10.79c-.16-.43-.45-.65-.86-.65h-3.63l.62-1.51h7.88c.3,0,.57-.1,.82-.31,.23-.23,.37-.51,.41-.86l.45-2.84h-8.6l2.43-9.39h5.65c.27,0,.53-.09,.75-.27,.23-.21,.36-.46,.41-.75l.21-1.68h-1.75l.96-3.15Z"/>
      <path class="cls-3" d="M20.6,4.91h.58c.18,0,.35-.07,.51-.21,.16-.14,.26-.31,.31-.51l.27-1.99H5.56c-.16,0-.31,.07-.45,.21-.14,.11-.23,.26-.27,.45l-.27,2.06h1.34L2.71,28.65h-.82c-.11,0-.23,.05-.34,.14-.11,.11-.18,.24-.21,.38l-.34,2.54H11.28l-.34,2.6h5.72l.34-2.6h.75c.16,0,.3-.06,.41-.17,.14-.11,.22-.25,.24-.41l.31-2.47h-1.3l3.19-23.74ZM11.69,28.65h-3.29l.93-6.75h3.25l-.89,6.75Zm1.27-9.49h-3.25l.82-6.24h3.25l-.82,6.24Zm1.2-8.98h-3.29l.72-5.28h3.29l-.72,5.28Z"/>
      <path class="cls-3" d="M77.01,31.12c-.4-.48-.94-.71-1.63-.69h-10.93c-.23,0-.41-.11-.55-.34-.14-.23-.19-.5-.17-.82l.92-8.43h-7.06l-.99,8.7c-.18,1.64-.01,2.8,.51,3.46,.66,.82,1.45,1.23,2.36,1.23h18.23l-.07-1.34c-.02-.71-.23-1.3-.63-1.78Z"/>
      <path class="cls-3" d="M45.92,34.24h3.15c2.17,0,3.65-1.67,4.45-5l1.99-8.39h-6.89l-2.71,13.4Z"/>
      <path class="cls-3" d="M63.05,6.93l-.58,11.27c-.02,.5,.09,.91,.34,1.23,.25,.32,.57,.48,.96,.48h2.91l.69-12.47c0-.14-.04-.26-.12-.36-.08-.1-.19-.15-.33-.15h-3.87Z"/>
      <path class="cls-3" d="M54.04,19.92h6.85l1.61-14.08h5.96l.34-2.78h-5.96l.14-.99h-6.2c-.18,0-.34,.06-.48,.19-.14,.13-.22,.3-.24,.53l-.03,.27h-5.41c-.16,0-.3,.07-.41,.21-.11,.14-.18,.3-.21,.48l-.27,2.09h5.93l-1.61,14.08Z"/>
      <path class="cls-3" d="M74.44,21.51c-.33-.45-.74-.67-1.22-.67h-4.69v7.85h6.48l-.03-5.48c-.02-.69-.2-1.25-.53-1.7Z"/>
      <path class="cls-3" d="M51.59,18.53c.92-.92,1.51-2.11,1.76-3.55l1.4-8.09h-3.97c-.11,0-.21,.03-.27,.1s-.11,.16-.14,.27l-2.23,12.64h.38c1.12,0,2.14-.46,3.07-1.39Z"/>
      <path class="cls-3" d="M85.06,22.16c-.63-.88-1.4-1.32-2.31-1.32h-3.15l.03,13.4h6.41l-.03-8.8c0-1.3-.31-2.39-.94-3.27Z"/>
      <path class="cls-3" d="M76.3,5.05h5.65l-.24,1.92h-6.27l.58-4.59h-6.24l-1.61,13.6c-.14,1.1,.07,2.03,.62,2.81,.53,.75,1.22,1.13,2.09,1.13h12.47c.89,0,1.67-.38,2.33-1.13,.71-.75,1.12-1.67,1.23-2.74l1.61-13.67h-11.89l-.34,2.67Zm4.39,10.86c-.02,.34-.14,.58-.36,.72-.22,.14-.51,.21-.87,.21h-4.59c-.18,0-.33-.06-.45-.17-.11-.11-.14-.37-.07-.75l.21-1.4h6.27l-.14,1.4Zm.48-4.08h-6.27l.34-2.36h6.24l-.31,2.36Z"/>
      <path class="cls-3" d="M128.45,31.64c-.66-.75-1.53-1.13-2.6-1.13h-13.98c-.5,0-.89-.16-1.17-.48-.27-.32-.38-.72-.31-1.2l1.88-13.77h-7.19l-2.23,15.45c-.16,1.03,.08,1.91,.72,2.64,.69,.71,1.54,1.06,2.57,1.06h23.06l.07-.17c.02-.53-.03-.97-.15-1.34-.13-.37-.35-.72-.67-1.06Z"/>
      <path class="cls-3" d="M99.33,2h-4.76V6.8c.02,.32,.14,.58,.34,.79,.18,.18,.43,.27,.75,.27h6.06v-3.56c0-.66-.23-1.21-.69-1.64-.46-.43-1.03-.65-1.71-.65Z"/>
      <g>
        <path class="cls-2" d="M112.79,19.45c-.29,0-.56-.13-.75-.34s-.28-.51-.24-.8l.48-3.39c.07-.49,.49-.86,.99-.86h9.18c.24,0,.43-.07,.61-.23,.22-.18,.32-.35,.36-.56l.88-6.59h-15.75c-.9,0-1.68-.34-2.25-.98-.57-.64-.83-1.47-.73-2.38l.17-1.26c.07-.49,.49-.86,.99-.86h26.52c.29,0,.57,.13,.76,.35s.27,.51,.23,.8l-1.82,12.51c-.17,1.25-.77,2.36-1.8,3.27-1.07,.9-2.27,1.35-3.58,1.35h-14.25Z"/>
        <path class="cls-1" d="M133.25,2.17h0m0,0l-1.82,12.51c-.14,1.03-.63,1.92-1.47,2.67-.87,.73-1.84,1.1-2.91,1.1h-14.25l.48-3.39h9.18c.48,0,.9-.16,1.27-.48,.39-.32,.62-.71,.69-1.17l1.03-7.74h-16.89c-.62,0-1.12-.22-1.51-.65-.39-.43-.55-.97-.48-1.61l.17-1.23h26.52m0-2h-26.52c-1,0-1.84,.74-1.98,1.72l-.17,1.23s0,.04,0,.06c-.13,1.21,.21,2.3,.98,3.16,.77,.86,1.81,1.32,3,1.32h14.61l-.71,5.37s-.01,0-.02,.01h-9.15c-1,0-1.84,.73-1.98,1.72l-.48,3.39c-.08,.57,.09,1.15,.47,1.59,.38,.44,.93,.69,1.51,.69h14.25c1.55,0,2.97-.53,4.2-1.57,.01-.01,.03-.03,.04-.04,1.21-1.08,1.92-2.39,2.12-3.9l1.8-12.38c.03-.13,.04-.26,.04-.39,0-1.1-.89-2-2-2h0Zm0,4h0Z"/>
      </g>
      <g>
        <path class="cls-2" d="M92.89,35.31c-1.02,0-1.87-.33-2.52-.98-.75-.75-1.06-1.73-.9-2.84l2.47-17.09h-.59c-.71,0-1.33-.27-1.8-.77-.46-.53-.64-1.17-.57-1.88l.35-2.4c.07-.49,.49-.86,.99-.86h10.52c.29,0,.57,.13,.76,.35,.19,.22,.28,.51,.23,.8l-2.88,20.11s.71-.05,.71-.05c.85,0,1.32,.35,1.58,.64,.36,.41,.53,.93,.49,1.52l-.32,2.2c-.07,.47-.46,.83-.94,.85l-7.33,.38c-.09,0-.17,0-.26,0Z"/>
        <path class="cls-1" d="M100.83,9.5h0m0,0l-2.98,20.8c-.02,.16,.02,.29,.14,.38,.08,.08,.18,.12,.3,.12,.05,0,.1,0,.15-.02l1.27-.07c.34,0,.6,.1,.79,.31,.18,.21,.26,.47,.24,.79l-.31,2.12-7.33,.38c-.07,0-.14,0-.21,0-.75,0-1.35-.23-1.81-.69-.53-.53-.73-1.19-.62-1.99l2.64-18.23h-1.75c-.43,0-.79-.15-1.06-.45-.25-.3-.35-.66-.31-1.1l.34-2.36h10.52m0-2h-10.52c-.99,0-1.84,.73-1.98,1.71l-.34,2.36s0,.05,0,.08c-.1,.98,.16,1.88,.77,2.6,.02,.02,.03,.04,.05,.06,.53,.58,1.21,.93,1.98,1.05l-2.31,15.98c-.21,1.44,.2,2.71,1.18,3.69,.84,.84,1.95,1.28,3.23,1.28,.1,0,.21,0,.31,0l7.33-.38c.95-.05,1.74-.77,1.88-1.71l.31-2.12s.01-.1,.02-.15c.06-.86-.2-1.64-.74-2.26-.48-.54-1.14-.87-1.89-.96l2.7-18.84c.02-.13,.04-.25,.04-.39,0-1.1-.89-2-2-2h0Zm0,4h0Z"/>
      </g>
      <g>
        <path class="cls-2" d="M150.65,35.31c-.29,0-.56-.13-.75-.34-.19-.22-.28-.51-.24-.8l.49-3.49h-15.67c-.29,0-.56-.12-.75-.34s-.28-.5-.24-.79l.14-1.06c.1-.73,.42-1.33,.96-1.81,.54-.48,1.2-.74,1.92-.74h14.3l.08-.6h-11.09c-.67,0-1.29-.15-1.87-.46-.56-.34-1.01-.73-1.37-1.18-.4-.52-.67-1.1-.81-1.74-.14-.62-.17-1.24-.08-1.86l2.23-16.07c.07-.49,.49-.86,.99-.86h2.65l-.23-.91c-.08-.3,0-.62,.18-.86,.19-.24,.48-.39,.79-.39h5.07c.8,0,1.52,.25,2.15,.75,.48,.38,.83,.85,1.06,1.41h15.56l.16-.3c.91-1.54,2.15-1.86,3.04-1.86h5.65c.35,0,.68,.19,.86,.49,.18,.3,.19,.68,.02,.99l-.37,.68h2.3c.29,0,.56,.12,.75,.34s.28,.51,.24,.79l-2.26,16.44c-.17,1.26-.76,2.36-1.77,3.25-1.04,.9-2.19,1.35-3.44,1.35h-11.39l-.08,.6h15.68c.29,0,.56,.12,.75,.34s.28,.5,.24,.79l-.14,1.06c-.14,.77-.46,1.37-.97,1.83-.52,.47-1.18,.72-1.9,.72h-14.3l-.36,2.76c-.09,.55-.34,1.01-.74,1.35-.4,.33-.88,.51-1.38,.51h-6.03Zm16.07-14.71c.21,0,.39-.07,.58-.23,.19-.16,.28-.34,.32-.59l.46-3.48h-6.93l-.61,4.3h6.18Zm-22.07-.54c-.04,.27,.04,.36,.08,.41,.06,.07,.13,.13,.34,.13h6.46l.58-4.3h-6.93l-.53,3.76Zm24.07-8.51l.51-3.65h-6.95l-.49,3.65h6.93Zm-15.97,0l.51-3.65h-6.95l-.49,3.65h6.93Z"/>
        <path class="cls-1" d="M174.94,2h0m0,0l-1.17,2.16h3.97l-2.26,16.44c-.14,1.03-.62,1.91-1.44,2.64-.85,.73-1.77,1.1-2.78,1.1h-12.27l-.34,2.6h16.82l-.14,1.06c-.09,.5-.31,.91-.65,1.22-.34,.31-.75,.46-1.23,.46h-15.18l-.48,3.63c-.05,.3-.18,.54-.39,.72-.22,.18-.46,.27-.74,.27h-6.03l.65-4.63h-16.82l.14-1.06c.07-.48,.28-.88,.63-1.2,.35-.32,.77-.48,1.25-.48h15.18l.34-2.6h-12.23c-.5,0-.97-.11-1.4-.34-.41-.25-.77-.56-1.06-.93-.3-.39-.5-.83-.62-1.34-.11-.5-.14-1-.07-1.51l2.23-16.07h3.94l-.55-2.16h5.07c.57,0,1.08,.18,1.52,.53,.45,.35,.74,.82,.87,1.39l.07,.24h16.89l.45-.82c.53-.89,1.24-1.34,2.16-1.34h5.65m-14.29,10.55h8.94l.79-5.65h-8.98l-.75,5.65m-15.97,0h8.94l.79-5.65h-8.98l-.75,5.65m14.7,9.04h7.33c.46,0,.87-.16,1.23-.48,.37-.32,.58-.72,.65-1.2l.62-4.62h-8.94l-.89,6.3m-14.32,0h7.33l.86-6.3h-8.94l-.65,4.62c-.07,.48,.03,.88,.31,1.2s.64,.48,1.1,.48M174.95,0h-5.66c-1.56,0-2.9,.76-3.78,2.16h-14.36c-.27-.45-.62-.86-1.05-1.19-.8-.63-1.75-.97-2.77-.97h-5.07c-.62,0-1.2,.28-1.58,.77-.31,.4-.45,.89-.42,1.39h-1.4c-1,0-1.84,.74-1.98,1.73l-2.23,16.07c-.1,.74-.07,1.49,.1,2.23,.18,.78,.51,1.49,.98,2.11,.01,.01,.02,.03,.03,.04,.18,.22,.37,.42,.57,.62-.91,.04-1.75,.38-2.43,.99-.7,.63-1.14,1.46-1.27,2.4l-.14,1.09c-.07,.57,.1,1.14,.48,1.58,.38,.43,.93,.68,1.5,.68h14.52l-.33,2.35c-.08,.57,.09,1.15,.47,1.59,.38,.44,.93,.69,1.51,.69h6.03c.74,0,1.44-.26,2.02-.74,.59-.5,.96-1.17,1.08-1.94l.26-1.94h13.42c.97,0,1.86-.34,2.57-.97,.67-.6,1.11-1.41,1.28-2.34,0-.03,.01-.07,.02-.1l.14-1.06c.07-.57-.1-1.14-.48-1.58-.38-.43-.93-.68-1.5-.68h-.36c.08-.06,.15-.12,.23-.19,1.21-1.07,1.91-2.37,2.11-3.89l2.26-16.44c.08-.57-.09-1.15-.47-1.59-.38-.44-.93-.69-1.51-.69h-.81c0-.05,0-.11,0-.16,0-1.1-.89-2-2-2h0Zm-11.79,8.9h4.93l-.23,1.65h-4.92l.22-1.65h0Zm-15.97,0h4.93l-.23,1.65h-4.92l.22-1.65h0Zm14.82,8.39h4.92l-.31,2.3h-4.94l.33-2.3h0Zm-15.96,0h4.91l-.31,2.3h-4.92l.32-2.3h0Z"/>
      </g>
      <g>
        <path class="cls-2" d="M192.34,10.98c-.29,0-.56-.12-.75-.34s-.28-.5-.24-.79l.21-1.54c.12-.62,.38-1.08,.78-1.45,.42-.38,.96-.58,1.54-.58h18.91c.29,0,.56,.12,.75,.34s.28,.5,.24,.79l-.21,1.54c-.08,.58-.35,1.09-.78,1.46-.43,.37-.97,.57-1.54,.57h-18.91Z"/>
        <path class="cls-1" d="M212.8,7.28h0m0,0l-.21,1.54c-.05,.34-.19,.62-.45,.84-.25,.22-.55,.33-.89,.33h-18.91l.21-1.54c.07-.34,.22-.62,.46-.84,.24-.22,.53-.33,.87-.33h18.91m0-2h-18.92c-.84,0-1.61,.29-2.21,.84-.56,.5-.93,1.17-1.08,1.93,0,.04-.02,.08-.02,.13l-.21,1.54c-.08,.57,.1,1.15,.48,1.58,.38,.43,.93,.68,1.5,.68h18.91c.82,0,1.58-.28,2.2-.81,.62-.54,1.01-1.26,1.12-2.09l.19-1.44c.02-.12,.03-.24,.03-.37,0-1.1-.89-2-2-2h0Zm0,4h0Z"/>
      </g>
      <g>
        <path class="cls-2" d="M208.48,35.31c-.29,0-.56-.12-.75-.34s-.28-.51-.24-.79l.38-2.74c.07-.5,.49-.86,.99-.86h1.58l3.34-24.79h-18.01c-.87,0-1.62-.35-2.17-1.01-.53-.63-.78-1.41-.71-2.26l.07-.57c.07-.5,.49-.87,.99-.87h28.3c.29,0,.56,.12,.75,.34,.19,.22,.28,.51,.24,.79l-3.91,28.47c-.17,1.28-.76,2.39-1.77,3.28-.98,.89-2.14,1.35-3.44,1.35h-5.65Z"/>
        <path class="cls-1" d="M222.25,2.07h0m0,0l-3.91,28.47c-.14,1.05-.62,1.94-1.44,2.67-.8,.73-1.72,1.1-2.78,1.1h-5.65l.38-2.74h1.58c.21,0,.41-.08,.62-.24,.18-.16,.29-.35,.31-.58l3.56-25.97h-19.15c-.57,0-1.04-.22-1.4-.65-.37-.43-.53-.95-.48-1.54l.07-.51h28.3m0-2h-28.3c-1,0-1.85,.74-1.98,1.73l-.07,.51s0,.07-.01,.11c-.09,1.12,.24,2.15,.94,2.98,.74,.88,1.78,1.36,2.93,1.36h16.86l-3.13,22.79h-.64c-1,0-1.85,.74-1.98,1.73l-.38,2.74c-.08,.57,.09,1.15,.47,1.59s.93,.69,1.51,.69h5.65c1.56,0,2.95-.55,4.13-1.62,1.17-1.04,1.87-2.35,2.07-3.89l3.89-28.35c.02-.12,.04-.25,.04-.38,0-1.1-.89-2-2-2h0Zm0,4h0Z"/>
      </g>
      <g>
        <path class="cls-2" d="M193.3,33.46c-1.2,0-2.23-.47-2.96-1.36-.73-.88-1.02-1.93-.87-3.13l2.3-16.56c.07-.49,.49-.86,.99-.86h6.75c.2,0,.39,.06,.55,.16,.16-.1,.35-.16,.55-.16h10.59c.29,0,.56,.12,.75,.34,.19,.22,.28,.51,.24,.79l-2.26,16.55c-.17,1.16-.72,2.15-1.62,2.97-.92,.83-1.96,1.25-3.1,1.25h-11.89Zm7.89-4.74l1.72-12.46h-2.69c-.08,0-.15,0-.23-.03l-.09,.61-1.61,11.88h2.89Z"/>
        <path class="cls-1" d="M211.19,12.55h0m0,0l-2.26,16.55c-.14,.91-.57,1.7-1.3,2.36-.73,.66-1.54,.99-2.43,.99h-11.89c-.91,0-1.64-.33-2.19-.99-.55-.66-.77-1.45-.65-2.36l2.3-16.55h6.75l-.38,2.71-.21,1.44-1.68,12.4c-.02,.16,.01,.31,.1,.45,.09,.11,.23,.17,.41,.17h3.7c.18,0,.34-.06,.48-.17,.11-.14,.18-.29,.21-.45l1.92-13.84h-3.84l.38-2.71h10.59m0-2h-10.59c-.19,0-.37,.03-.55,.08-.18-.05-.36-.08-.55-.08h-6.75c-1,0-1.84,.74-1.98,1.73l-2.3,16.55c-.19,1.48,.19,2.83,1.09,3.91,.93,1.12,2.22,1.72,3.73,1.72h11.89c1.4,0,2.67-.51,3.77-1.51,1.08-.98,1.73-2.17,1.94-3.55l2.25-16.47c.02-.12,.04-.25,.04-.37,0-1.1-.89-2-2-2h0Zm0,4h0Zm-10.32,2.71h.9l-1.45,10.46h-.87l1.42-10.46h0Z"/>
      </g>
      <g>
        <path class="cls-2" d="M181.79,35.28c-1,0-1.84-.33-2.49-.98-.71-.78-.99-1.75-.83-2.84l2.38-16.95h-.56c-.74,0-1.36-.32-1.8-.92-.39-.49-.57-1.14-.5-1.86l.35-2.47c.07-.49,.49-.86,.99-.86h9.83c.29,0,.56,.12,.75,.34s.28,.51,.24,.79l-2.79,20.15s.65-.04,.65-.04c.88,0,1.35,.38,1.59,.69,.32,.36,.49,.88,.45,1.47l-.32,2.2c-.07,.47-.46,.83-.93,.85l-6.75,.41c-.09,0-.18,0-.26,0Z"/>
        <path class="cls-1" d="M189.16,9.4h0m0,0l-2.88,20.76c0,.09,.01,.18,.03,.27,.02,.07,.06,.13,.1,.17,.08,.08,.18,.12,.3,.12,.05,0,.1,0,.15-.02l1.2-.07c.34,0,.59,.1,.75,.31,.18,.21,.26,.47,.24,.79l-.31,2.12-6.75,.41c-.07,0-.14,0-.2,0-.73,0-1.32-.23-1.78-.69-.48-.53-.66-1.19-.55-1.99l2.54-18.09h-1.71c-.41,0-.74-.17-.99-.51-.25-.32-.35-.71-.31-1.16l.34-2.43h9.83m0-2h-9.84c-1,0-1.84,.73-1.98,1.72l-.34,2.43s0,.05,0,.08c-.1,.96,.15,1.85,.71,2.57,.51,.68,1.21,1.11,2.01,1.25l-2.22,15.86c-.2,1.39,.16,2.64,1.05,3.61,.02,.02,.04,.04,.06,.07,.84,.84,1.94,1.28,3.2,1.28,.1,0,.21,0,.31,0l6.76-.41c.95-.06,1.72-.77,1.86-1.71l.31-2.12s.01-.1,.02-.15c.06-.84-.18-1.6-.7-2.21-.45-.55-1.1-.9-1.84-1l2.62-18.89c.02-.12,.04-.25,.04-.38,0-1.1-.89-2-2-2h0Zm0,4h0Z"/>
      </g>
      <g>
        <path class="cls-2" d="M184.46,8.76c-.55,0-1.02-.15-1.4-.45-.03-.02-.06-.05-.09-.08l-.28-.28c-.06-.06-.11-.12-.15-.19-.16-.27-.25-.58-.25-.93V2c0-.55,.45-1,1-1h3.87c.94,0,1.76,.35,2.35,1.02,.59,.59,.91,1.38,.91,2.31v3.43c0,.55-.45,1-1,1h-4.97Z"/>
        <path class="cls-1" d="M187.17,2c.66,0,1.2,.23,1.61,.69,.43,.43,.65,.98,.65,1.64v3.43h-4.97c-.32,0-.58-.08-.79-.24-.09-.09-.18-.18-.27-.27-.07-.11-.1-.25-.1-.41V2h3.87M187.17,0h-3.87c-1.1,0-2,.9-2,2V6.83c0,.53,.13,1.01,.39,1.44,.08,.14,.18,.26,.3,.38l.29,.29c.06,.06,.12,.11,.18,.16,.56,.43,1.25,.66,2.02,.66h4.97c1.1,0,2-.9,2-2v-3.43c0-1.17-.41-2.22-1.2-3.02C189.44,.45,188.39,0,187.17,0h0Z"/>
      </g>
    </g>
    <g>
      <path class="cls-4" d="M252.61,14.72l.18-1.42c.05-.26,.18-.49,.38-.67,.2-.18,.43-.28,.7-.28h4.56l-.34,2.37h3.9l.29-2.11c.05-.25,.17-.45,.34-.61,.18-.16,.38-.24,.61-.24h4.66l-.42,2.95h6.64l.26-1.98c.05-.28,.18-.51,.4-.7,.21-.18,.45-.28,.71-.28h4.53l-.42,2.95h3.08l-.29,2.08c-.05,.3-.19,.55-.42,.75-.23,.2-.48,.3-.76,.3h-2.05l-1.58,11.33c-.12,.79-.5,1.47-1.13,2.03-.65,.58-1.38,.87-2.19,.87h-11.77c-.79,0-1.43-.29-1.92-.87-.49-.56-.68-1.24-.58-2.03l1.58-11.33h-3.9l-2.05,14.73c-.05,.37,0,.68,.13,.92,.16,.25,.41,.37,.76,.37h21.26c.61,0,1.1,.21,1.46,.63,.36,.42,.5,.95,.43,1.58l-.05,.5h-27.16c-.79,0-1.43-.27-1.92-.82-.49-.56-.68-1.26-.58-2.08l2.24-15.83h-1.84l.34-2.45c.04-.19,.13-.36,.28-.49,.15-.13,.32-.2,.51-.2h1.16Zm19.07,14.46c.28-.25,.45-.55,.5-.92l1.48-10.41h-6.61l-1.48,10.41c-.05,.37,.03,.68,.24,.92,.21,.25,.5,.37,.87,.37h4.03c.37,0,.69-.12,.97-.37Z"/>
      <path class="cls-4" d="M313.43,24.55l2.13,6.38h-1.77c-1.7,0-2.98-.98-3.82-2.95l-1.08-3.37h-14.62l-3.19,4.06c-1.53,1.79-3.24,2.69-5.14,2.69h-2.19l5.45-6.85c-.54-.18-.97-.52-1.26-1.03-.3-.51-.4-1.11-.29-1.79l1.26-9.9h4.93l-.68,5.27h6.64l.42-3.37h-5.87l.26-1.9h22.34l-1.27,9.9c-.07,.7-.32,1.31-.76,1.82-.42,.51-.92,.86-1.5,1.05Zm-26.61,12.06l4.29-9.27,4.93,.13-2.24,5.87c-1.16,2.18-2.67,3.27-4.53,3.27h-2.45Zm12.28-13.88l.45-3.58h-6.64l-.32,2.63c-.04,.25,.02,.47,.16,.66,.14,.19,.32,.29,.55,.29h5.79Zm11.67-.95l.34-2.63h-6.64l-.45,3.58h5.77c.25,0,.46-.1,.66-.29,.18-.19,.28-.41,.32-.66Zm.61-4.74l.42-3.37h-6.64l-.42,3.37h6.64Zm-4.24,11.67c.09-.35,.26-.65,.51-.88,.25-.24,.54-.36,.86-.36h3.82l-.97,8.03c-.07,.32-.22,.58-.46,.79-.24,.21-.49,.32-.75,.32h-3.95l.95-7.9Z"/>
      <path class="cls-4" d="M326.45,17.54l-2.29,15.99c-.02,.12,.02,.22,.11,.29,.09,.09,.2,.11,.34,.08l.97-.05c.26,0,.47,.08,.61,.24,.14,.16,.2,.36,.18,.61l-.24,1.63-5.64,.29c-.65,.04-1.17-.14-1.55-.53-.4-.4-.56-.91-.47-1.53l2.03-14.01h-1.34c-.33,0-.61-.11-.82-.34-.19-.23-.27-.51-.24-.84l.26-1.82h8.09Zm-1.16-5.77c.53,0,.96,.17,1.32,.5,.35,.33,.53,.76,.53,1.26v2.74h-4.66c-.25,0-.44-.07-.58-.21-.16-.16-.25-.36-.26-.61v-3.69h3.66Zm4.42,10.04h5.53l-1.45,10.59c-.05,.37,.03,.68,.24,.92,.21,.25,.51,.37,.9,.37h10.75c.83,0,1.49,.29,2,.87,.25,.26,.42,.54,.51,.82s.14,.62,.12,1.03l-.05,.13h-17.73c-.79,0-1.45-.27-1.98-.82-.49-.56-.68-1.24-.55-2.03l1.71-11.88Zm1.26-9.9h20.39l-1.4,9.62c-.11,.79-.48,1.48-1.13,2.05-.67,.56-1.41,.84-2.24,.84h-10.96l.37-2.61h7.06c.37,0,.69-.12,.97-.37,.3-.25,.47-.54,.53-.9l.79-5.95h-12.99c-.47,0-.86-.17-1.16-.5-.3-.33-.42-.75-.37-1.24l.13-.95Z"/>
      <path class="cls-4" d="M352.52,33.74l2.08-17.02h2.71l-1.55,13.09c-.33,2.48-1.41,3.78-3.24,3.92Zm7.35,1.29l2.69-23.26h-2.9c-.37,0-.68,.14-.92,.42-.28,.28-.46,.64-.53,1.08l-2.66,23.34h2.82c.39,0,.72-.15,1-.45,.28-.3,.45-.68,.5-1.13Zm5.22-17.33l-1.24,10.85h-.82c-.51,0-.92-.22-1.24-.66-.32-.46-.45-.98-.39-1.58l1-9.3h2.16c.16,0,.29,.06,.39,.18,.09,.14,.13,.31,.13,.5Zm19.15,16.02c.28,0,.49,.09,.63,.26,.09,.09,.14,.19,.17,.3s.05,.27,.07,.46l.18,1.87h-19.7c-.58,0-1-.18-1.26-.53-.39-.51-.33-1.14,.16-1.9l13.33-19.31h-11.27l.53-1.55c.04-.19,.13-.35,.29-.47,.14-.12,.32-.18,.53-.18h16.07c.32,0,.56,.13,.74,.4,.19,.26,.23,.55,.11,.87l-12.43,18.62c-.47,.77-.23,1.16,.74,1.16h11.14Z"/>
      <path class="cls-4" d="M400.18,34.14c.21,.25,.49,.37,.84,.37h13.93c.53,0,.96,.21,1.3,.62,.34,.41,.49,.91,.43,1.49h-19.47c-.77,0-1.39-.29-1.84-.87-.46-.56-.63-1.25-.53-2.05l1.26-9.51h-1.98l-2.19,10.43c-.12,.6-.4,1.08-.84,1.45-.44,.37-.95,.55-1.53,.55h-3.06l2.58-12.43h-1.05l.13-1c.05-.33,.19-.61,.42-.82,.23-.21,.49-.32,.79-.32h13.12l-.13,1c-.05,.33-.19,.61-.42,.82-.23,.21-.49,.32-.79,.32h-.03l-1.19,9.01c-.05,.39,.02,.7,.21,.95Zm-5.27-22.37l-.37,2.77-.11,.82-.11,.76h-5.29l.29-2.05c.07-.63,.35-1.17,.84-1.61,.47-.46,1.01-.69,1.61-.69h3.13Zm-5.74,6.93c.05-.44,.23-.8,.54-1.08,.31-.28,.66-.42,1.07-.42h11.99l-.08,.61c-.07,.44-.26,.8-.57,1.08s-.66,.42-1.07,.42h-11.96l.08-.61Zm30.19-6.24c.35,.44,.49,.97,.42,1.61l-.29,2.05h-5.22l.21-1.58c.02-.18-.03-.32-.13-.45-.11-.12-.24-.18-.4-.18h-18.57l.29-2.13h22.23c.6,0,1.08,.23,1.45,.69Zm-9.46,12.57l-.29,2.13-4.82-.61c-.56-.09-1.01-.36-1.33-.8-.33-.45-.46-.97-.41-1.57l6.85,.84Zm2.61-7.03c.05-.25,.16-.44,.32-.59,.16-.15,.35-.22,.58-.22h4.45l-.21,1.53h1.24l-.13,.97c-.05,.33-.19,.61-.42,.82-.23,.21-.5,.32-.82,.32h-.13l-1.26,9.38c-.11,.83-.46,1.52-1.08,2.08-.61,.56-1.3,.84-2.05,.84h-7.56c.09-.61,.35-1.12,.78-1.53s.94-.61,1.51-.61h1.84c.35,0,.66-.12,.92-.37,.28-.25,.45-.55,.5-.92l1.16-8.88h-8.72l.13-.97c.05-.33,.19-.61,.42-.82,.23-.21,.5-.32,.82-.32h7.64l.08-.71Z"/>
      <path class="cls-4" d="M432.32,17.46h20.44l-.18,1.34c-.04,.21-.13,.4-.29,.55-.18,.14-.37,.21-.58,.21h-20.68l-2.87,5.48c-.12,.18-.15,.34-.08,.5,.07,.14,.2,.21,.39,.21h7.06l.55-3.98c.04-.25,.14-.46,.32-.63,.19-.18,.41-.26,.66-.26h4.5l-.66,4.87h10.59l-.32,2.34h-10.59l-.34,2.56h11.35l-.18,1.63c-.04,.19-.13,.35-.29,.47-.14,.14-.31,.21-.5,.21h-10.7l-.42,3.06c-.02,.16-.08,.29-.18,.4-.12,.11-.26,.16-.42,.16h-4.82l.5-3.61h-13.72l.21-1.45c.04-.25,.14-.45,.32-.61,.19-.18,.41-.26,.66-.26h12.86l.32-2.56h-11.51c-.37,0-.69-.08-.95-.24-.25-.16-.43-.37-.55-.63-.12-.28-.18-.6-.16-.95,.04-.37,.16-.71,.37-1.03l3.16-5.69h-2.5l.16-1.21c.05-.25,.18-.46,.37-.63,.19-.18,.41-.26,.66-.26h2.63l.66-1.24c.19-.28,.42-.42,.68-.42h4.95l-.87,1.66Zm-7.48-5.69h3.27l-.42,3.5c-.02,.16-.08,.28-.18,.37-.09,.09-.2,.13-.34,.13h-5.16l.16-1.32c.11-.75,.42-1.4,.95-1.92,.51-.51,1.09-.76,1.74-.76Zm29,1.66c.07,.39,.08,.75,.03,1.08l-.18,1.5h-5.14c-.11,0-.19-.04-.26-.13-.07-.09-.11-.18-.11-.29l.08-.55c.02-.21-.03-.4-.13-.55-.1-.18-.25-.26-.42-.26h-18.99l.29-2.45h22.92c.65,0,1.17,.25,1.55,.76,.19,.23,.32,.53,.37,.9Zm-25.08,1.4v-.03s0-.07,.03-.11c-.02,.04-.03,.08-.03,.13Z"/>
      <path class="cls-4" d="M461.98,12.01c.17-.16,.37-.24,.58-.24h5.51l-.18,1.21h4.53l-2.63,20.39c-.05,.42-.18,.83-.39,1.24-.19,.4-.45,.75-.76,1.05-.32,.28-.66,.51-1.03,.68-.39,.18-.77,.26-1.16,.26h-8.93c-.39,0-.75-.09-1.08-.26-.33-.18-.61-.4-.82-.68-.25-.3-.41-.65-.5-1.05-.1-.39-.12-.8-.05-1.24l2.63-20.39h3.92l.08-.37c.04-.25,.13-.45,.29-.61Zm4.06,12.93h-5.37l-1.19,8.98c-.02,.16,.04,.31,.16,.45,.09,.12,.21,.18,.37,.18h4.16c.17,0,.32-.06,.45-.18,.14-.14,.23-.29,.26-.45l1.16-8.98Zm1.32-10.01h-5.35l-1.08,7.93h5.37l1.05-7.93Zm20.73-1.79c.14,.18,.2,.39,.18,.63l-2.58,19.99c-.12,.95-.5,1.66-1.13,2.13-.61,.47-1.31,.71-2.08,.71h-7.59l.1-.74c.05-.39,.21-.71,.47-.97,.28-.25,.6-.37,.95-.37h2.92c.25,0,.47-.1,.66-.29,.21-.19,.33-.41,.37-.66l2.4-18.39h-4.66c-.79,1.53-1.91,2.29-3.35,2.29h-2.4l1.79-4.93c.26-.53,.62-.79,1.08-.79h4.08l-.42,1.11h8.64c.25,0,.43,.09,.55,.26Zm-13.28,12.33c-.56-.32-.94-.77-1.12-1.36s-.14-1.18,.15-1.78l.58-1.03,5.95,3.37-1.03,3.21-4.53-2.42Z"/>
      <path class="cls-4" d="M495.27,17.36l-2.74,16.86c-.12,.68-.43,1.24-.91,1.67-.48,.43-1.05,.65-1.7,.65h-.71l3.13-19.18h2.92Zm2.92,19.18h-4.85l2.71-20.52h-4.06l.11-.84c.05-.37,.21-.67,.46-.9,.25-.23,.55-.34,.88-.34h2.9l.13-.97c.05-.35,.2-.64,.43-.86,.24-.22,.51-.33,.83-.33h3.74l-.29,2.16h4.08l-.13,.84c-.05,.37-.21,.67-.46,.9-.25,.23-.55,.34-.88,.34h-2.87l-2.74,20.52Zm6.14-19.18l-2,19.18c-.79,0-1.44-.3-1.96-.91-.52-.61-.74-1.34-.67-2.2l1.69-16.07h2.95Zm16.28,7.48c-.11,.81-.49,1.43-1.16,1.87l-2.16,1.32,1.98,8.38h-4.11c-.47,0-.89-.15-1.25-.45-.36-.3-.61-.69-.75-1.19l-.92-3.66-9.01,5.51,.26-2.05c.11-.83,.5-1.45,1.19-1.87l16.2-9.96-.26,2.11Zm-4.58-12.99c.26,0,.47,.1,.63,.29,.16,.19,.22,.42,.18,.68h5.64l-.16,1.13c-.05,.28-.18,.51-.37,.69-.19,.18-.42,.26-.68,.26h-7.01l-2.58,4.03c-.09,.1-.12,.2-.11,.29,0,.11,.04,.14,.13,.11l5.32-.45,4.74-2.66-.34,2.27c-.18,.91-.65,1.6-1.42,2.06l-15.94,8.93,.37-2.24c.16-.93,.62-1.62,1.4-2.08l7.59-4.24-6.37,.61c-.39,.05-.72,0-1-.18-.26-.16-.46-.37-.58-.63-.11-.26-.14-.56-.11-.9,.04-.33,.16-.66,.37-.97l2.66-3.93h-2.55l.16-1.13c.03-.26,.15-.49,.34-.67,.19-.18,.42-.28,.69-.28h4.69l.13-.97h4.19Z"/>
      <path class="cls-4" d="M527.99,11.85h5.29l-3.58,20.76c-.23,1.11-.77,2.03-1.62,2.77-.85,.74-1.81,1.11-2.88,1.11h-1.48l4.27-24.63Zm12.46-.03l-2.92,21.21c-.04,.28,.04,.53,.24,.74,.17,.16,.37,.24,.58,.24h5.88c.68,0,1.24,.25,1.67,.76,.43,.51,.61,1.12,.54,1.82h-11.93c-.79,0-1.42-.29-1.9-.87-.47-.56-.66-1.24-.55-2.03l2.92-21.18c.03-.19,.13-.36,.28-.49,.15-.13,.32-.2,.51-.2h4.69Zm2.95,.03h2.84c.65,0,1.17,.22,1.57,.67,.39,.45,.57,1.01,.51,1.7l-1.84,18.12h-5.22l2.13-20.49Zm8.09,0h2.13c.88,0,1.59,.31,2.13,.92,.54,.62,.78,1.39,.71,2.32l-2.21,21.39h-4.14c-.33,0-.6-.11-.79-.33-.19-.22-.28-.5-.26-.83l2.42-23.47Z"/>
      <path class="cls-4" d="M560.5,14.98l.26-2.16c.03-.21,.13-.39,.28-.53,.15-.14,.32-.21,.51-.21h9.04l-.29,2.19c-.04,.21-.12,.38-.26,.51-.14,.13-.3,.2-.47,.2h-1.61l-.92,6.98h2.03l-.26,1.95c-.02,.21-.1,.38-.25,.51-.15,.13-.31,.2-.49,.2h-1.37l-1.11,8.38,2.27-.13-.32,2.4c-.02,.18-.09,.33-.22,.46-.13,.13-.29,.21-.46,.22l-9.22,.63,.32-2.34c.04-.21,.13-.39,.28-.53,.15-.14,.32-.22,.51-.24l1.58-.11,1.16-8.75h-2.27l.26-1.92c.04-.21,.13-.39,.28-.53,.15-.14,.31-.21,.49-.21h1.58l.92-6.98h-2.24Zm25.42,9.88h-3.66l-.29,2.16h6.56l-.24,1.77c-.04,.25-.14,.46-.33,.63-.18,.18-.4,.26-.65,.26h-5.69l-.53,3.87h6.8l-.29,2.16c-.04,.21-.13,.38-.28,.51-.15,.13-.31,.2-.49,.2h-18.1l.26-1.95c.04-.26,.15-.48,.34-.66s.4-.26,.63-.26h5.93l.5-3.87h-6.56l.26-1.9c.04-.21,.13-.39,.28-.54,.15-.15,.32-.22,.51-.22h5.85l.29-2.16h-3.69c-.84,0-1.53-.3-2.05-.9-.51-.63-.71-1.4-.61-2.29l1.29-9.83h4.98l-.29,2.13v.03l-.05,.4-.03,.11-.37,2.87h1.82l.45-3.37h-1.37l.29-2.16h13.33l-1.29,9.83c-.12,.9-.53,1.66-1.21,2.29-.7,.6-1.47,.9-2.32,.9Zm-8.59-2.16l.42-3.13h-1.82l-.29,2.29c-.05,.25,0,.46,.16,.63,.14,.14,.34,.21,.61,.21h.92Zm5.61-3.13l-.39,3.13h.9c.25,0,.46-.07,.66-.21,.21-.18,.33-.39,.34-.63l.32-2.29h-1.82Zm.74-5.56l-.45,3.37h1.82l.45-3.37h-1.82Z"/>
      <path class="cls-4" d="M599.14,34.29c.25-.02,.44,.05,.59,.2,.15,.15,.21,.35,.2,.59l-.16,1.19-5.27,.32c-.63,.04-1.14-.14-1.53-.53-.39-.4-.54-.92-.45-1.55l2.16-15.46h-1.58c-.26,0-.47-.1-.62-.29-.15-.19-.21-.43-.17-.71l.13-.87h7.9l-2.34,16.75c0,.07,.01,.13,.04,.18s.07,.11,.12,.16c.03,.04,.09,.06,.16,.07s.14,.01,.21,.01l.61-.05Zm-3.42-18.6c-.16,0-.29-.05-.38-.15-.1-.1-.15-.22-.15-.38l-.13-3.42h4.06c.39,0,.71,.13,.96,.38s.39,.57,.41,.94l.08,2.63h-4.85Zm9.8,3.82c-.32,0-.61,.11-.87,.33-.26,.22-.42,.5-.47,.83l-1.82,12.99c-.11,.79,.09,1.48,.58,2.05,.47,.56,1.12,.84,1.92,.84h16.83l.05-.4c.07-.6-.07-1.1-.42-1.5-.35-.4-.82-.61-1.4-.61h-11.2c-.28,0-.5-.1-.66-.29-.14-.18-.19-.4-.16-.68l.82-5.93,11.91-2.16c.83-.18,1.54-.57,2.13-1.17s.96-1.33,1.08-2.17l-14.73,2.69,.68-4.82h-4.29Zm15.44-1.13h3.87l-.82-4.79c-.09-.49-.31-.9-.66-1.21-.33-.3-.76-.45-1.26-.45h-14.3c-.51,0-.97,.15-1.4,.45-.44,.32-.77,.72-1,1.21l-2.16,4.79h4.14c.79,0,1.43-.42,1.92-1.26l1.11-2.4c.21-.47,.55-.71,1.03-.71h6.43c.47,0,.75,.24,.84,.71l.4,2.16c.3,1,.92,1.5,1.87,1.5Z"/>
    </g>
  </g>
</svg>